<?xml version="1.0" encoding="UTF-8"?>
<svg width="25px" height="17px" viewBox="0 0 25 17" version="1.1" xmlns="http://www.w3.org/2000/svg" xmlns:xlink="http://www.w3.org/1999/xlink">
    <!-- Generator: Sketch 58 (84663) - https://sketch.com -->
    <title>Group 6</title>
    <desc>Created with Sketch.</desc>
    <defs>
        <polygon id="path-1" points="4.8828125e-06 0.0328415902 24.9999023 0.0328415902 24.9999023 16 4.8828125e-06 16"></polygon>
    </defs>
    <g id="Welcome" stroke="none" stroke-width="1" fill="none" fill-rule="evenodd">
        <g id="代币发放" transform="translate(-1005.000000, -758.000000)">
            <g id="Group-6" transform="translate(1005.000000, 758.000000)">
                <g id="Group-3" transform="translate(0.000000, 0.481366)">
                    <mask id="mask-2" fill="white">
                        <use xlink:href="#path-1"></use>
                    </mask>
                    <g id="Clip-2"></g>
                    <path d="M12.4998584,14.3482422 C7.49355957,14.3482422 3.15757324,9.57598532 1.87402832,8.015863 C3.15591309,6.45437064 7.48281738,1.68460917 12.4998584,1.68460917 C17.5059131,1.68460917 21.8416064,6.45603425 23.1256885,8.01693945 C21.8438037,9.5784318 17.5168994,14.3482422 12.4998584,14.3482422 M24.8410693,7.52915963 C24.6177295,7.22300673 19.2962451,0.0328415902 12.4998584,0.0328415902 C5.70342285,0.0328415902 0.381743164,7.22300673 0.158647461,7.52886606 C-0.0528759766,7.81931254 -0.0528759766,8.21324526 0.158647461,8.50369174 C0.381743164,8.80984465 5.70342285,16.0000098 12.4998584,16.0000098 C19.2962451,16.0000098 24.6177295,8.80979572 24.8410693,8.50393639 C25.0528857,8.21353884 25.0528857,7.81931254 24.8410693,7.52915963" id="Fill-1" fill="#000000" mask="url(#mask-2)"></path>
                </g>
                <path d="M13.0000247,11.8146257 C11.1619509,11.8146257 9.66670781,10.319348 9.66670781,8.48134177 C9.66670781,6.64333554 11.1620003,5.14805781 13.0000247,5.14805781 C14.8380491,5.14805781 16.3333416,6.64333554 16.3333416,8.48134177 C16.3333416,10.319348 14.8380491,11.8146257 13.0000247,11.8146257 M13.0000247,3.48136646 C10.2430622,3.48136646 8,5.72445585 8,8.48134177 C8,11.2382771 10.2430622,13.4813665 13.0000247,13.4813665 C15.7569872,13.4813665 18,11.2382771 18,8.48134177 C18,5.72445585 15.7569872,3.48136646 13.0000247,3.48136646" id="Fill-4" fill="#000000"></path>
            </g>
        </g>
    </g>
</svg>