<?xml version="1.0" encoding="UTF-8"?>
<svg width="19px" height="18px" viewBox="0 0 19 18" version="1.1" xmlns="http://www.w3.org/2000/svg" xmlns:xlink="http://www.w3.org/1999/xlink">
    <!-- Generator: Sketch 58 (84663) - https://sketch.com -->
    <title>Group 6</title>
    <desc>Created with Sketch.</desc>
    <defs>
        <polygon id="path-1" points="0.000488888889 0.0160323887 18.9639259 0.0160323887 18.9639259 8.99999271 0.000488888889 8.99999271"></polygon>
    </defs>
    <g id="Welcome" stroke="none" stroke-width="1" fill="none" fill-rule="evenodd">
        <g id="代币发放" transform="translate(-1011.000000, -21.000000)">
            <g id="Group-6" transform="translate(1011.000000, 21.000000)">
                <path d="M17.8125284,10.2537313 C17.8125284,11.8890331 16.8150523,12.0058404 16.6250568,12.0058404 L2.02513075,12.0058404 L5.16595599,8.91628812 L4.32878852,8.08695652 L0.172637959,12.1752474 C-0.0575459864,12.4030216 -0.0575459864,12.7708915 0.172637959,12.9987021 L4.32878852,17.0869565 L5.16595599,16.2635018 L2.02513075,13.173913 L16.6250568,13.173913 C17.4444122,13.173913 19,12.5898767 19,10.2537313 L19,8.50162232 L17.8125284,8.50162232 L17.8125284,10.2537313 Z" id="Fill-1" fill="#000000"></path>
                <g id="Group-5" transform="translate(0.000000, 0.086957)">
                    <mask id="mask-2" fill="white">
                        <use xlink:href="#path-1"></use>
                    </mask>
                    <g id="Clip-4"></g>
                    <path d="M1.18567407,6.84290769 C1.18567407,5.21051903 2.18122963,5.09391984 2.37085926,5.09391984 L16.9427111,5.09391984 L13.8078593,8.17796842 L14.6434519,8.99999271 L18.7916,4.91902105 C19.0213778,4.69161619 19.0213778,4.32440162 18.7916,4.09699676 L14.6434519,0.0160251012 L13.8019704,0.843879352 L16.9427111,3.92792794 L2.37085926,3.92792794 C1.55308148,3.92792794 0.000488888889,4.51092389 0.000488888889,6.84290769 L0.000488888889,8.59189555 L1.18567407,8.59189555 L1.18567407,6.84290769 Z" id="Fill-3" fill="#000000" mask="url(#mask-2)"></path>
                </g>
            </g>
        </g>
    </g>
</svg>